<svg width="268" height="64" viewBox="0 0 268 64" fill="none" xmlns="http://www.w3.org/2000/svg">
<g filter="url(#filter0_d_5693_51097)">
<path fill-rule="evenodd" clip-rule="evenodd" d="M138.985 52.9162C141.176 54.9721 144.171 56 147.971 56C152.174 56 155.684 54.7486 158.5 52.2458C161.362 49.743 163.038 46.3687 163.53 42.1229L166.079 21.8771C166.168 20.8939 166.213 20.1788 166.213 19.7318C166.213 16.1117 165.095 13.2514 162.86 11.1508C160.669 9.05028 157.673 8 153.873 8C149.67 8 146.161 9.2514 143.344 11.7542C140.572 14.257 138.918 17.6313 138.381 21.8771L135.9 42.1229C135.81 43.1061 135.766 43.8436 135.766 44.3352C135.766 47.9553 136.839 50.8156 138.985 52.9162ZM151.526 45.4749C150.9 46.1453 150.117 46.4804 149.179 46.4804C148.329 46.4804 147.681 46.2123 147.234 45.676C146.787 45.095 146.563 44.3128 146.563 43.3296L146.63 42.5922L149.246 21.4078C149.38 20.2458 149.76 19.3073 150.386 18.5922C151.012 17.8771 151.794 17.5196 152.733 17.5196C153.582 17.5196 154.231 17.7877 154.678 18.324C155.125 18.8603 155.348 19.5978 155.348 20.5363C155.348 20.8939 155.326 21.1844 155.281 21.4078L154.986 23.8661L150.521 26.0084L156.808 27.1816V24.0391L156.808 28.229L154.512 27.8006L152.733 42.5922C152.554 43.7989 152.152 44.7598 151.526 45.4749Z" fill="url(#paint0_linear_5693_51097)"/>
<path fill-rule="evenodd" clip-rule="evenodd" d="M127.927 52.0447C130.788 49.7207 132.442 46.4134 132.889 42.1229C132.979 41.1397 133.023 40.4246 133.023 39.9777C133.023 36.3128 131.772 33.4525 129.268 31.3966C129.134 31.2626 129.178 31.1285 129.402 30.9944C132.353 28.9832 134.096 25.8324 134.633 21.5419C134.722 21.0056 134.767 20.2458 134.767 19.2626C134.767 15.6872 133.605 13.0056 131.28 11.2179C129 9.43017 125.825 8.53631 121.757 8.53631H110.289C110.065 8.53631 109.864 8.6257 109.685 8.80447C109.551 8.93855 109.462 9.11732 109.417 9.34078L108.907 13.4911L104.415 15.0307L111.75 15.6592V13.5642L111.75 16.7067L108.546 16.4321L107.453 25.3267L96.032 27.7052L108.607 29.451V26.1341L108.607 30.4986L106.848 30.2545L105.373 42.2623L96.5555 43.9413L107.558 46.0362V42.8939L107.558 47.0838L104.845 46.5671L103.851 54.6592C103.806 54.8827 103.851 55.0838 103.985 55.2626C104.119 55.3966 104.298 55.4637 104.521 55.4637H117.666C121.69 55.4637 125.11 54.324 127.927 52.0447ZM119.074 18.3911C119.164 18.1676 119.298 18.0559 119.477 18.0559H120.684C121.757 18.0559 122.561 18.3687 123.098 18.9944C123.679 19.5754 123.97 20.4469 123.97 21.6089C123.97 23.3966 123.567 24.8045 122.763 25.8324C122.003 26.8156 120.93 27.3073 119.544 27.3073H118.336C118.068 27.3073 117.979 27.1955 118.068 26.9721L119.074 18.3911ZM121.086 44.2011C120.281 45.3184 119.253 45.8771 118.001 45.8771H116.056C115.788 45.8771 115.699 45.7654 115.788 45.5419L116.995 35.6201C116.995 35.3966 117.107 35.2849 117.33 35.2849H119.342C120.281 35.2849 121.019 35.6648 121.556 36.4246C122.092 37.1844 122.36 38.2123 122.36 39.5084C122.36 41.5196 121.936 43.0838 121.086 44.2011Z" fill="url(#paint1_linear_5693_51097)"/>
<path fill-rule="evenodd" clip-rule="evenodd" d="M179.08 56C175.28 56 172.284 54.9721 170.094 52.9162C167.948 50.8156 166.875 47.9553 166.875 44.3352C166.875 43.8436 166.919 43.1061 167.009 42.1229L169.49 21.8771C170.027 17.6313 171.681 14.257 174.453 11.7542C177.269 9.2514 180.779 8 184.982 8C188.782 8 191.778 9.05028 193.968 11.1508C196.204 13.2514 197.322 16.1117 197.322 19.7318C197.322 20.1788 197.277 20.8939 197.187 21.8771L194.639 42.1229C194.147 46.3687 192.471 49.743 189.609 52.2458C186.793 54.7486 183.283 56 179.08 56ZM180.287 46.4804C181.226 46.4804 182.009 46.1453 182.635 45.4749C183.26 44.7598 183.663 43.7989 183.842 42.5922L184.35 38.368L186.149 38.7038V34.5139L186.149 37.6564L179.862 36.4832L184.865 34.0825L186.39 21.4078C186.435 21.1844 186.457 20.8939 186.457 20.5363C186.457 19.5978 186.234 18.8603 185.787 18.324C185.339 17.7877 184.691 17.5196 183.842 17.5196C182.903 17.5196 182.12 17.8771 181.494 18.5922C180.869 19.3073 180.488 20.2458 180.354 21.4078L177.739 42.5922L177.672 43.3296C177.672 44.3128 177.895 45.095 178.342 45.676C178.79 46.2123 179.438 46.4804 180.287 46.4804Z" fill="url(#paint2_linear_5693_51097)"/>
<path d="M200.934 53.1173C203.08 55.0391 205.986 56 209.652 56C213.632 56 216.985 54.8156 219.712 52.4469C222.484 50.0782 224.116 46.8827 224.608 42.8603C224.697 41.9665 224.742 41.3408 224.742 40.9832C224.742 39.2402 224.384 37.6983 223.669 36.3575C222.998 34.9721 222.082 33.6983 220.919 32.5363C219.801 31.3296 218.102 29.7654 215.822 27.8436C213.989 26.324 212.715 25.1397 212 24.2905C211.329 23.3966 210.994 22.4804 210.994 21.5419C210.994 20.3799 211.284 19.419 211.866 18.6592C212.491 17.8994 213.229 17.5196 214.079 17.5196C214.883 17.5196 215.487 17.8324 215.889 18.4581C216.336 19.0838 216.515 19.8883 216.426 20.8715L216.158 22.7486C216.158 23.2849 216.404 23.5531 216.895 23.5531H225.882C226.105 23.5531 226.307 23.486 226.485 23.352C226.664 23.1732 226.776 22.9721 226.821 22.7486L227.022 21.1397C227.111 20.2458 227.156 19.5978 227.156 19.1955C227.156 15.7989 226.083 13.095 223.937 11.0838C221.791 9.02793 218.907 8 215.286 8C212.424 8 209.854 8.6257 207.573 9.87709C205.293 11.1285 203.505 12.8939 202.208 15.1732C200.912 17.4525 200.263 20.0447 200.263 22.9497C200.263 25.0503 200.666 26.9274 201.471 28.581C202.167 29.8999 202.953 31.0537 203.83 32.0422L199.771 33.3406L209.202 34.5138V31.3716L209.202 35.5615L207.349 35.331C207.838 35.745 208.36 36.1766 208.915 36.6257C210.882 38.2346 212.201 39.4413 212.871 40.2458C213.587 41.0503 213.944 41.8771 213.944 42.7263C213.944 43.8436 213.632 44.7598 213.006 45.4749C212.424 46.1453 211.709 46.4804 210.86 46.4804C210.189 46.4804 209.63 46.2346 209.183 45.743C208.781 45.2067 208.579 44.514 208.579 43.6648L208.646 42.9944L208.848 41.4525C208.848 40.9162 208.602 40.648 208.11 40.648H199.056C198.833 40.648 198.632 40.7374 198.453 40.9162C198.274 41.0503 198.162 41.229 198.117 41.4525L197.916 43.5307C197.827 44.3352 197.782 44.9385 197.782 45.3408C197.782 48.5587 198.833 51.1508 200.934 53.1173Z" fill="url(#paint3_linear_5693_51097)"/>
<path d="M259.312 8.53631C259.535 8.53631 259.714 8.6257 259.848 8.80447C259.982 8.93855 260.027 9.11732 259.982 9.34078L259.043 17.2514C258.999 17.4749 258.887 17.676 258.708 17.8547C258.574 17.9888 258.395 18.0559 258.172 18.0559H250.057C249.833 18.0559 249.722 18.1676 249.722 18.3911L245.228 54.6592C245.228 54.8827 245.139 55.0838 244.96 55.2626C244.781 55.3966 244.58 55.4637 244.356 55.4637H235.169C234.677 55.4637 234.431 55.1955 234.431 54.6592L235.547 45.647L237.495 46.0363V41.8464L237.495 44.9887L229.636 43.4174L236.09 41.2667L237.225 32.1036L239.591 32.4189V28.229L239.591 31.3715L227.016 29.6955L237.791 27.5415L238.924 18.3911C238.924 18.1676 238.835 18.0559 238.656 18.0559H230.877C230.653 18.0559 230.474 17.9888 230.34 17.8547C230.206 17.676 230.161 17.4749 230.206 17.2514L231.145 9.34078C231.19 9.11732 231.301 8.93855 231.48 8.80447C231.659 8.6257 231.86 8.53631 232.084 8.53631H259.312Z" fill="url(#paint4_linear_5693_51097)"/>
<path d="M77.1609 56C73.4053 56 70.4321 55.0168 68.2413 53.0503C66.0953 51.0391 65.0223 48.3128 65.0223 44.8715C65.0223 44.4693 65.067 43.7765 65.1564 42.7933L67.6499 22.6654L69.825 22.9916V19.8491L69.8243 19.8495V21.9443L65.6328 21.3158L68.0213 19.8832C68.6419 16.4464 70.1907 13.6696 72.6676 11.5531C75.4395 9.18436 78.8822 8 82.9954 8C86.751 8 89.7242 9.00559 91.9149 11.0168C94.1057 13.0279 95.2011 15.7542 95.2011 19.1955C95.2011 19.5978 95.1563 20.2905 95.0669 21.2737L94.7316 23.7542C94.6869 23.9777 94.5751 24.1788 94.3963 24.3575C94.2622 24.4916 94.0833 24.5587 93.8598 24.5587H84.605C84.3814 24.5587 84.2026 24.4916 84.0684 24.3575C83.9343 24.1788 83.8896 23.9777 83.9343 23.7542L84.2696 21.1397L84.3367 20.4693C84.3367 19.5754 84.1132 18.8603 83.6661 18.324C83.219 17.7877 82.6154 17.5196 81.8553 17.5196C81.0059 17.5196 80.2905 17.8547 79.7093 18.5251C79.1281 19.1955 78.7704 20.067 78.6363 21.1397L75.9537 42.8603L75.8866 43.5978C75.8866 44.4916 76.1102 45.2067 76.5573 45.743C77.0044 46.2346 77.5856 46.4804 78.3009 46.4804C79.1504 46.4804 79.8658 46.1453 80.447 45.4749C81.0729 44.8045 81.4529 43.933 81.5871 42.8603L81.6104 42.6735L83.4477 42.8939V39.7514L83.4471 39.7518V41.8463L78.2077 41.2179L82.0213 39.388L82.1236 38.5698C82.213 38.3464 82.1236 38.2346 81.8553 38.2346H80.1787C79.9552 38.2346 79.7763 38.1676 79.6422 38.0335C79.5081 37.8547 79.4634 37.6536 79.5081 37.4302L80.3799 30.324C80.3799 30.1006 80.4693 29.9218 80.6482 29.7877C80.827 29.6089 81.0282 29.5196 81.2518 29.5196H93.2562C93.4797 29.5196 93.6586 29.6089 93.7927 29.7877C93.9268 29.9218 93.9715 30.1006 93.9268 30.324L92.3844 42.7933C91.9373 46.8156 90.3054 50.0335 87.4887 52.4469C84.7167 54.8156 81.2741 56 77.1609 56Z" fill="url(#paint5_linear_5693_51097)"/>
<path fill-rule="evenodd" clip-rule="evenodd" d="M41.9905 52.0447C44.8519 49.7207 46.5062 46.4134 46.9533 42.1229C47.0427 41.1397 47.0874 40.4246 47.0874 39.9777C47.0874 36.3128 45.8355 33.4525 43.3318 31.3966C43.1977 31.2626 43.2424 31.1285 43.4659 30.9944C46.4167 28.9832 48.1604 25.8324 48.6969 21.5419C48.7863 21.0056 48.831 20.2458 48.831 19.2626C48.831 15.6872 47.6686 13.0056 45.3437 11.2179C43.0635 9.43017 39.8892 8.53631 35.8206 8.53631H24.3527C24.1292 8.53631 23.928 8.6257 23.7491 8.80447C23.615 8.93855 23.5256 9.11732 23.4809 9.34078L23.1641 11.9196L16.3828 13.8261L24.7658 14.6117V12.517L24.7665 12.5168V15.6593L22.7282 15.4683L22.146 20.2083L9.04753 23.2011L23.7178 24.0391V20.8969L23.7184 20.8967V25.0867L21.562 24.9635L20.482 33.7559L8 36.9232L21.6224 37.6565V34.5141L21.623 34.514V38.7039L19.8858 38.6104L18.7367 47.9653L15.3346 49.5977L20.574 50.2262V48.1316L20.5747 48.1313V51.2738L18.363 51.0085L17.9146 54.6592C17.8698 54.8827 17.9145 55.0838 18.0487 55.2626C18.1828 55.3966 18.3616 55.4637 18.5852 55.4637H31.7297C35.7536 55.4637 39.1738 54.324 41.9905 52.0447ZM33.1381 18.3911C33.2275 18.1676 33.3616 18.0559 33.5405 18.0559H34.7476C35.8206 18.0559 36.6254 18.3687 37.1619 18.9944C37.7431 19.5754 38.0337 20.4469 38.0337 21.6089C38.0337 23.3966 37.6314 24.8045 36.8266 25.8324C36.0665 26.8156 34.9935 27.3073 33.6075 27.3073H32.4004C32.1321 27.3073 32.0427 27.1955 32.1321 26.9721L33.1381 18.3911ZM35.15 44.2011C34.3452 45.3184 33.3169 45.8771 32.0651 45.8771H30.1202C29.8519 45.8771 29.7625 45.7654 29.8519 45.5419L31.0591 35.6201C31.0591 35.3966 31.1709 35.2849 31.3944 35.2849H33.4063C34.3452 35.2849 35.0829 35.6648 35.6194 36.4246C36.156 37.1844 36.4242 38.2123 36.4242 39.5084C36.4242 41.5196 35.9995 43.0838 35.15 44.2011Z" fill="url(#paint6_linear_5693_51097)"/>
<path d="M49.092 55.2626C49.2261 55.3966 49.4049 55.4637 49.6285 55.4637H58.8833C59.1069 55.4637 59.2857 55.3966 59.4198 55.2626C59.5987 55.0838 59.7104 54.8827 59.7551 54.6592L65.3214 9.34078C65.3662 9.11732 65.3214 8.93855 65.1873 8.80447C65.0532 8.6257 64.8744 8.53631 64.6508 8.53631H55.396C55.1724 8.53631 54.9712 8.6257 54.7924 8.80447C54.6583 8.93855 54.5689 9.11732 54.5241 9.34078L52.085 29.199L48.8672 30.743L54.1066 31.3715V29.2769L54.1072 29.2766V32.4191L51.7246 32.1333L48.9578 54.6592C48.9131 54.8827 48.9578 55.0838 49.092 55.2626Z" fill="url(#paint7_linear_5693_51097)"/>
</g>
<defs>
<filter id="filter0_d_5693_51097" x="0" y="0" width="267.999" height="64" filterUnits="userSpaceOnUse" color-interpolation-filters="sRGB">
<feFlood flood-opacity="0" result="BackgroundImageFix"/>
<feColorMatrix in="SourceAlpha" type="matrix" values="0 0 0 0 0 0 0 0 0 0 0 0 0 0 0 0 0 0 127 0" result="hardAlpha"/>
<feOffset/>
<feGaussianBlur stdDeviation="4"/>
<feColorMatrix type="matrix" values="0 0 0 0 0.372549 0 0 0 0 0.0745098 0 0 0 0 0.0196078 0 0 0 1 0"/>
<feBlend mode="normal" in2="BackgroundImageFix" result="effect1_dropShadow_5693_51097"/>
<feBlend mode="normal" in="SourceGraphic" in2="effect1_dropShadow_5693_51097" result="shape"/>
</filter>
<linearGradient id="paint0_linear_5693_51097" x1="8" y1="8" x2="248.892" y2="89.0226" gradientUnits="userSpaceOnUse">
<stop stop-color="#FFDC86"/>
<stop offset="0.550621" stop-color="#FFAD7B"/>
<stop offset="1" stop-color="#FFD492"/>
</linearGradient>
<linearGradient id="paint1_linear_5693_51097" x1="8" y1="8" x2="248.892" y2="89.0226" gradientUnits="userSpaceOnUse">
<stop stop-color="#FFDC86"/>
<stop offset="0.550621" stop-color="#FFAD7B"/>
<stop offset="1" stop-color="#FFD492"/>
</linearGradient>
<linearGradient id="paint2_linear_5693_51097" x1="8" y1="8" x2="248.892" y2="89.0226" gradientUnits="userSpaceOnUse">
<stop stop-color="#FFDC86"/>
<stop offset="0.550621" stop-color="#FFAD7B"/>
<stop offset="1" stop-color="#FFD492"/>
</linearGradient>
<linearGradient id="paint3_linear_5693_51097" x1="8" y1="8" x2="248.892" y2="89.0226" gradientUnits="userSpaceOnUse">
<stop stop-color="#FFDC86"/>
<stop offset="0.550621" stop-color="#FFAD7B"/>
<stop offset="1" stop-color="#FFD492"/>
</linearGradient>
<linearGradient id="paint4_linear_5693_51097" x1="8" y1="8" x2="248.892" y2="89.0226" gradientUnits="userSpaceOnUse">
<stop stop-color="#FFDC86"/>
<stop offset="0.550621" stop-color="#FFAD7B"/>
<stop offset="1" stop-color="#FFD492"/>
</linearGradient>
<linearGradient id="paint5_linear_5693_51097" x1="8" y1="8" x2="248.892" y2="89.0226" gradientUnits="userSpaceOnUse">
<stop stop-color="#FFDC86"/>
<stop offset="0.550621" stop-color="#FFAD7B"/>
<stop offset="1" stop-color="#FFD492"/>
</linearGradient>
<linearGradient id="paint6_linear_5693_51097" x1="8" y1="8" x2="248.892" y2="89.0226" gradientUnits="userSpaceOnUse">
<stop stop-color="#FFDC86"/>
<stop offset="0.550621" stop-color="#FFAD7B"/>
<stop offset="1" stop-color="#FFD492"/>
</linearGradient>
<linearGradient id="paint7_linear_5693_51097" x1="8" y1="8" x2="248.892" y2="89.0226" gradientUnits="userSpaceOnUse">
<stop stop-color="#FFDC86"/>
<stop offset="0.550621" stop-color="#FFAD7B"/>
<stop offset="1" stop-color="#FFD492"/>
</linearGradient>
</defs>
</svg>
